<svg xmlns="http://www.w3.org/2000/svg" xmlns:xlink="http://www.w3.org/1999/xlink" width="500" zoomAndPan="magnify"
    viewBox="0 0 375 374.999991" height="500" preserveAspectRatio="xMidYMid meet" version="1.0">
    <defs>
        <clipPath id="1b913fd0db">
            <path
                d="M 17.25 0 L 357.75 0 C 362.324219 0 366.710938 1.816406 369.949219 5.050781 C 373.183594 8.289062 375 12.675781 375 17.25 L 375 357.75 C 375 362.324219 373.183594 366.710938 369.949219 369.949219 C 366.710938 373.183594 362.324219 375 357.75 375 L 17.25 375 C 12.675781 375 8.289062 373.183594 5.050781 369.949219 C 1.816406 366.710938 0 362.324219 0 357.75 L 0 17.25 C 0 7.722656 7.722656 0 17.25 0 "
                clip-rule="nonzero" />
        </clipPath>
        <clipPath id="3dc075c46a">
            <path d="M 72 59 L 305.289062 59 L 305.289062 319 L 72 319 Z M 72 59 " clip-rule="nonzero" />
        </clipPath>
    </defs>
    <g clip-path="url(#1b913fd0db)">
        <rect x="-37.5" width="450" fill="#000000" y="-37.499999" height="449.999989" fill-opacity="1" />
    </g>
    <g clip-path="url(#3dc075c46a)">
        <path fill="#ffffff"
            d="M 183.222656 95.457031 L 92.605469 298.847656 C 90.453125 303.152344 88.722656 308.34375 86.570312 312.777344 C 84.417969 317.210938 79.660156 317.84375 75.785156 316.664062 C 70.179688 314.511719 74.066406 310.625 75.355469 307.167969 L 183.234375 64.492188 C 188.839844 66.214844 188.839844 71.40625 190.574219 74.421875 L 292.414062 302.417969 C 296.71875 312.347656 297.476562 317.109375 284.214844 316.347656 C 231.996094 315.917969 180.222656 316.347656 127.574219 316.347656 L 120.664062 316.347656 C 118.070312 316.347656 115.601562 315.054688 115.058594 311.28125 C 115.058594 307.824219 117.207031 306.21875 120.121094 306.21875 L 266.964844 306.21875 C 274.734375 306.21875 279.910156 305.785156 275.164062 295.425781 L 186.574219 97.660156 C 186.574219 98.519531 185.285156 98.089844 183.121094 95.9375 Z M 379.128906 188.285156 L 379.128906 75.140625 C 379.128906 65.644531 380.851562 61.210938 392.078125 61.210938 C 424.007812 62.503906 456.367188 59.917969 488.296875 66.820312 C 502.980469 70.28125 516.773438 74.597656 529.300781 83.664062 C 561.234375 106.550781 561.234375 152.75 528.871094 175.203125 C 518.949219 182.117188 507.738281 186.425781 496.941406 192.046875 C 493.058594 194.199219 489.601562 193.769531 487.449219 189.453125 C 483.996094 183.839844 489.601562 183.410156 492.511719 182.105469 L 515.800781 170.453125 C 549.019531 151.457031 549.019531 106.980469 515.800781 87.984375 C 496.386719 76.761719 474.378906 74.054688 452.367188 72.875 C 436.839844 71.582031 420.4375 72.875 404.910156 72.445312 C 394.988281 72.015625 392.253906 75.902344 392.253906 85.402344 L 392.253906 312.523438 C 392.253906 316.828125 390.101562 318.132812 386.21875 318.132812 C 382.332031 318.132812 380.179688 316.410156 380.179688 312.523438 L 380.179688 303.027344 L 378.890625 188.160156 Z M 643.089844 188.285156 L 643.089844 73.421875 C 643.089844 64.351562 644.8125 60.753906 654.734375 60.753906 L 812.675781 59.464844 C 817.738281 59.464844 823.886719 57.742188 823.457031 66.378906 C 823.457031 74.585938 816.546875 72.417969 812.246094 72.417969 L 671.132812 73.710938 C 658.1875 73.710938 656.035156 77.597656 656.035156 89.25 L 656.035156 289.296875 C 656.035156 301.960938 658.628906 306.140625 672.4375 306.140625 C 719.898438 304.847656 767.796875 305.710938 815.269531 305.710938 C 819.015625 305.636719 822.753906 305.78125 826.484375 306.140625 C 829.078125 306.140625 830.367188 307.863281 830.785156 310.445312 C 830.785156 313.042969 829.496094 314.753906 826.902344 315.511719 C 823.445312 315.941406 819.992188 315.941406 817.410156 315.941406 C 764.761719 315.941406 712.113281 315.511719 659.464844 316.375 C 646.519531 316.375 644.367188 312.066406 644.367188 299.960938 L 643.101562 188.132812 Z M 908.882812 63.074219 C 917.085938 59.617188 922.261719 63.503906 927.007812 70.847656 L 985.261719 161.09375 C 991.296875 171.023438 994.324219 169.300781 999.941406 160.664062 L 1057.777344 71.710938 C 1059.929688 69.113281 1061.664062 64.796875 1064.6875 63.503906 C 1067.28125 61.351562 1072.457031 61.351562 1075.46875 63.503906 C 1078.925781 66.101562 1075.039062 69.113281 1073.320312 71.28125 L 916.390625 310.636719 C 915.097656 312.359375 914.667969 314.09375 912.933594 314.941406 C 909.480469 317.539062 904.734375 318.398438 901.289062 315.375 C 897.847656 312.347656 901.722656 309.332031 903.441406 307.167969 L 977.222656 193.605469 C 984.132812 184.539062 982.285156 178.914062 976.792969 170.71875 L 914.78125 76.15625 C 913.492188 71.851562 909.71875 68.808594 909.175781 63.199219 Z M 1010.105469 197.355469 L 1083.027344 309.625 C 1084.316406 311.347656 1086.480469 313.929688 1084.746094 315.664062 C 1083.011719 317.398438 1079.683594 317.386719 1076.976562 317.386719 C 1071.371094 316.957031 1069.636719 311.777344 1067.484375 307.886719 L 1007.824219 216.351562 C 1002.765625 210.019531 1000.054688 203.394531 1009.976562 197.355469 Z M 744.308594 195.632812 L 684.320312 195.632812 C 680.4375 195.632812 674.398438 197.355469 674.832031 189.589844 C 675.261719 182.675781 680.867188 185.285156 684.320312 185.285156 L 804.714844 185.285156 C 808.601562 185.285156 814.636719 183.5625 814.207031 191.324219 C 813.777344 198.242188 808.171875 195.632812 804.714844 195.632812 Z M 744.308594 195.632812 "
            fill-opacity="1" fill-rule="nonzero" />
    </g>
</svg>