<svg xmlns="http://www.w3.org/2000/svg" xmlns:xlink="http://www.w3.org/1999/xlink" width="500" zoomAndPan="magnify"
    viewBox="0 0 375 149.999998" height="200" preserveAspectRatio="xMidYMid meet" version="1.0">
    <defs>
        <clipPath id="96b509bad3">
            <path d="M 0 4.480469 L 375 4.480469 L 375 146 L 0 146 Z M 0 4.480469 " clip-rule="nonzero" />
        </clipPath>
        <clipPath id="4fe443cb9f">
            <path
                d="M 17.25 4.480469 L 357.75 4.480469 C 362.324219 4.480469 366.710938 6.296875 369.949219 9.535156 C 373.183594 12.769531 375 17.15625 375 21.730469 L 375 128.269531 C 375 132.84375 373.183594 137.230469 369.949219 140.464844 C 366.710938 143.703125 362.324219 145.519531 357.75 145.519531 L 17.25 145.519531 C 7.722656 145.519531 0 137.796875 0 128.269531 L 0 21.730469 C 0 12.203125 7.722656 4.480469 17.25 4.480469 "
                clip-rule="nonzero" />
        </clipPath>
    </defs>
    <g clip-path="url(#96b509bad3)">
        <g clip-path="url(#4fe443cb9f)">
            <path fill="#000000" d="M 0 4.480469 L 375 4.480469 L 375 145.105469 L 0 145.105469 Z M 0 4.480469 "
                fill-opacity="1" fill-rule="nonzero" />
        </g>
    </g>
    <path fill="#ffffff"
        d="M 53.507812 43.683594 L 22.746094 112.445312 C 22.015625 113.898438 21.425781 115.65625 20.695312 117.152344 C 19.964844 118.652344 18.351562 118.867188 17.035156 118.46875 C 15.132812 117.738281 16.453125 116.425781 16.890625 115.257812 L 53.511719 33.21875 C 55.417969 33.800781 55.417969 35.554688 56.003906 36.574219 L 90.578125 113.652344 C 92.039062 117.007812 92.296875 118.617188 87.792969 118.359375 C 70.066406 118.214844 52.492188 118.359375 34.617188 118.359375 L 32.273438 118.359375 C 31.390625 118.359375 30.554688 117.921875 30.367188 116.648438 C 30.367188 115.480469 31.097656 114.933594 32.085938 114.933594 L 81.9375 114.933594 C 84.574219 114.933594 86.332031 114.789062 84.722656 111.289062 L 54.648438 44.429688 C 54.648438 44.722656 54.207031 44.574219 53.472656 43.847656 Z M 120.015625 75.066406 L 120.015625 36.816406 C 120.015625 33.605469 120.601562 32.109375 124.410156 32.109375 C 135.25 32.546875 146.238281 31.671875 157.078125 34.003906 C 162.0625 35.175781 166.742188 36.632812 170.996094 39.699219 C 181.835938 47.4375 181.835938 63.054688 170.851562 70.644531 C 167.484375 72.984375 163.675781 74.4375 160.011719 76.339844 C 158.691406 77.066406 157.519531 76.921875 156.789062 75.460938 C 155.617188 73.566406 157.519531 73.417969 158.507812 72.976562 L 166.414062 69.039062 C 177.691406 62.617188 177.691406 47.582031 166.414062 41.160156 C 159.824219 37.367188 152.351562 36.449219 144.878906 36.050781 C 139.609375 35.613281 134.039062 36.050781 128.769531 35.90625 C 125.398438 35.761719 124.472656 37.074219 124.472656 40.285156 L 124.472656 117.066406 C 124.472656 118.523438 123.742188 118.964844 122.421875 118.964844 C 121.105469 118.964844 120.375 118.382812 120.375 117.066406 L 120.375 113.855469 L 119.933594 75.023438 Z M 209.625 75.066406 L 209.625 36.234375 C 209.625 33.171875 210.210938 31.953125 213.578125 31.953125 L 267.199219 31.519531 C 268.917969 31.519531 271.003906 30.933594 270.859375 33.855469 C 270.859375 36.628906 268.511719 35.898438 267.050781 35.898438 L 219.148438 36.335938 C 214.75 36.335938 214.023438 37.648438 214.023438 41.585938 L 214.023438 109.214844 C 214.023438 113.496094 214.902344 114.910156 219.589844 114.910156 C 235.699219 114.472656 251.964844 114.765625 268.078125 114.765625 C 269.351562 114.738281 270.621094 114.789062 271.886719 114.910156 C 272.765625 114.910156 273.203125 115.492188 273.347656 116.367188 C 273.347656 117.242188 272.90625 117.820312 272.027344 118.078125 C 270.855469 118.222656 269.679688 118.222656 268.804688 118.222656 C 250.933594 118.222656 233.058594 118.078125 215.1875 118.367188 C 210.789062 118.367188 210.058594 116.914062 210.058594 112.820312 L 209.628906 75.015625 Z M 299.859375 32.738281 C 302.644531 31.570312 304.402344 32.882812 306.011719 35.367188 L 325.789062 65.875 C 327.835938 69.230469 328.863281 68.648438 330.773438 65.730469 L 350.40625 35.65625 C 351.136719 34.78125 351.726562 33.320312 352.753906 32.882812 C 353.632812 32.15625 355.390625 32.15625 356.414062 32.882812 C 357.585938 33.761719 356.265625 34.78125 355.683594 35.511719 L 302.40625 116.429688 C 301.96875 117.011719 301.824219 117.597656 301.234375 117.886719 C 300.0625 118.761719 298.449219 119.054688 297.28125 118.03125 C 296.113281 117.007812 297.425781 115.988281 298.011719 115.257812 L 323.058594 76.867188 C 325.40625 73.800781 324.777344 71.898438 322.914062 69.128906 L 301.859375 37.160156 C 301.421875 35.703125 300.144531 34.675781 299.957031 32.78125 Z M 334.222656 78.132812 L 358.976562 116.085938 C 359.414062 116.667969 360.148438 117.542969 359.5625 118.128906 C 358.972656 118.714844 357.84375 118.710938 356.921875 118.710938 C 355.019531 118.566406 354.433594 116.816406 353.703125 115.5 L 333.449219 84.554688 C 331.730469 82.414062 330.808594 80.175781 334.179688 78.132812 Z M 243.988281 77.550781 L 223.625 77.550781 C 222.304688 77.550781 220.253906 78.132812 220.402344 75.507812 C 220.546875 73.171875 222.449219 74.054688 223.625 74.054688 L 264.496094 74.054688 C 265.816406 74.054688 267.863281 73.46875 267.71875 76.09375 C 267.570312 78.433594 265.667969 77.550781 264.496094 77.550781 Z M 243.988281 77.550781 "
        fill-opacity="1" fill-rule="nonzero" />
</svg>